<svg xmlns="http://www.w3.org/2000/svg" viewBox="337 17 23.799 23.771">
  <defs>
    <style>
      .cls-1 {
        fill: #fff;
      }
    </style>
  </defs>
  <path id="Lupa-busca" class="cls-1" d="M628.738,74.369a9.358,9.358,0,0,0-12.917-.219,8.955,8.955,0,0,0-1.314,11.823L607.5,92.979l2.463,2.463,6.952-6.953a8.962,8.962,0,0,0,11.44-.876,9.355,9.355,0,0,0,.383-13.244Zm-2.461,10.619a5.887,5.887,0,0,1-8.484-8.153,6.091,6.091,0,0,1,8.32-.219A6.161,6.161,0,0,1,626.276,84.988Z" transform="translate(-270.5 -54.672)"/>
</svg>
